<svg xmlns="http://www.w3.org/2000/svg" width="1280" height="720" viewBox="0 0 1280 720">
  <rect width="1280" height="720" fill="#f8fafc"/>
  <rect x="24" y="24" width="1232" height="672" fill="#ffffff" stroke="#cbd5e1" stroke-width="2"/>
  <text x="48" y="68" fill="#0f172a" font-size="34" font-family="Segoe UI, Arial">Apercu Schema - Carte Mesure SWR (AD8307)</text>

  <rect x="80" y="130" width="220" height="90" fill="#ecfeff" stroke="#0e7490"/>
  <text x="94" y="180" fill="#0f172a" font-size="22" font-family="Segoe UI, Arial">Coupleur Dir.</text>

  <rect x="380" y="110" width="220" height="110" fill="#fef9c3" stroke="#a16207"/>
  <text x="400" y="170" fill="#0f172a" font-size="22" font-family="Segoe UI, Arial">AD8307 FWD</text>

  <rect x="380" y="270" width="220" height="110" fill="#fef9c3" stroke="#a16207"/>
  <text x="400" y="330" fill="#0f172a" font-size="22" font-family="Segoe UI, Arial">AD8307 REV</text>

  <rect x="700" y="110" width="220" height="110" fill="#dcfce7" stroke="#166534"/>
  <text x="735" y="170" fill="#0f172a" font-size="22" font-family="Segoe UI, Arial">Filtre ADC</text>

  <rect x="700" y="270" width="220" height="110" fill="#dcfce7" stroke="#166534"/>
  <text x="735" y="330" fill="#0f172a" font-size="22" font-family="Segoe UI, Arial">Filtre ADC</text>

  <rect x="980" y="190" width="220" height="150" fill="#ede9fe" stroke="#6d28d9"/>
  <text x="1000" y="255" fill="#0f172a" font-size="22" font-family="Segoe UI, Arial">ESP32-S3 ADC</text>
  <text x="1000" y="290" fill="#0f172a" font-size="18" font-family="Segoe UI, Arial">ADC_FWD / ADC_REV</text>

  <line x1="300" y1="160" x2="380" y2="160" stroke="#334155" stroke-width="3"/>
  <line x1="300" y1="190" x2="380" y2="320" stroke="#334155" stroke-width="3"/>
  <line x1="600" y1="160" x2="700" y2="160" stroke="#334155" stroke-width="3"/>
  <line x1="600" y1="320" x2="700" y2="320" stroke="#334155" stroke-width="3"/>
  <line x1="920" y1="160" x2="980" y2="230" stroke="#334155" stroke-width="3"/>
  <line x1="920" y1="320" x2="980" y2="300" stroke="#334155" stroke-width="3"/>

  <rect x="380" y="460" width="250" height="100" fill="#fee2e2" stroke="#991b1b"/>
  <text x="410" y="520" fill="#0f172a" font-size="22" font-family="Segoe UI, Arial">LDO 5V -> 3V3A</text>
  <line x1="505" y1="460" x2="505" y2="380" stroke="#991b1b" stroke-width="3"/>
  <line x1="505" y1="380" x2="810" y2="380" stroke="#991b1b" stroke-width="3"/>

  <text x="48" y="690" fill="#64748b" font-size="18" font-family="Segoe UI, Arial">Apercu schema (illustration). Le schema editable est dans hardware/fusion360/urban_beam_measurement_start.sch</text>
</svg>
